<svg xmlns="http://www.w3.org/2000/svg" xmlns:xlink="http://www.w3.org/1999/xlink" xmlns:lucid="lucid" width="671" height="580.29"><g transform="translate(-120 -325.7146211055042)" lucid:page-tab-id="0_0"><path d="M521.5 401.96c1.1-1.1.9-3.17 0-4.34l-5.8-5.8-25.88-25.24c-1.13-1.1-2.8-1.1-4.14 0-1.13 1.17-1.48 3.24 0 4.34l27.2 26.7c1.1 1.17 1.1 3.24 0 4.34l-27.76 27.66c-1.1 1.1-1.1 3.18 0 4.35 1.13 1.1 3.2.9 4.13 0l25.68-25.6.2-.2 6.37-6.2zM403.02 401.96c-1.1-1.1-.9-3.17 0-4.34l5.8-5.8 25.87-25.24c1.13-1.1 2.8-1.1 4.13 0 1.14 1.17 1.48 3.24 0 4.34l-26.62 26.7c-1.1 1.17-1.1 3.24 0 4.34l27.2 27.66c1.1 1.1 1.1 3.18 0 4.35-1.14 1.1-3.2.9-4.14 0l-26.24-25.25-.2-.13-5.8-6.64z" stroke="#000" stroke-opacity="0" stroke-width="2.34" fill="#3999c6"/><path d="M491.5 345.7h-36.57l-19.66 55.74 24 .1-18.76 55.17 51.75-73.58h-25.13l24.38-37.4z" stroke="#000" stroke-opacity="0" stroke-width="2.34" fill="#fcd116"/><path d="M467.1 383.12l24.42-37.4h-19.14L452.16 392l23.95.22-35.58 64.5 51.73-73.6H467.1z" stroke="#000" stroke-opacity="0" stroke-width="2.34" fill="#ff8c00" fill-opacity=".3"/><path d="M456.16 348.1l-5.7 19.14-14.53.94-32.2 31.53 32.3 32.7 12.45 5.2-5.8 14.26 11.85-16.55 30.58-1.34L520 399.92l-31.85-31.95-11.86-.52 11.5-19.67z" stroke="#000" stroke-opacity="0" stroke-width="0" fill-opacity="0"/><use xlink:href="#a" transform="matrix(1,0,0,1,372.25757549465624,465.7146211055042) translate(7.438888888888897 13.92222222222222)"/><path d="M273.72 576.92H265v-4.64c0-3.57-3.08-6.55-6.75-6.55-3.53 0-6.6 2.98-6.6 6.55v4.64h-8.87v-4.64c0-8.57 7.04-15.47 15.47-15.47 8.57 0 15.47 7.03 15.47 15.48v4.64z" stroke="#000" stroke-opacity="0" stroke-width=".93" fill="#ffa400"/><path d="M277.4 576.92h-38.15c-1.68 0-3.06 1.3-3.06 2.97v28.18c0 1.67 1.37 2.98 3.05 2.98h38.14c1.68 0 3.06-1.3 3.06-2.98v-28.2c-.16-1.66-1.54-2.96-3.07-2.96zm-17.16 18.55v3.8c0 .96-.92 1.9-2 1.9-1.07 0-1.98-.82-1.98-1.9v-3.8c-1.23-.7-2-2.02-2-3.45 0-2.14 1.84-3.92 4-3.92 2.13 0 3.82 1.78 3.82 3.92.15 1.43-.77 2.74-1.84 3.45z" stroke="#000" stroke-opacity="0" stroke-width=".93" fill="#003a70"/><path d="M235.27 572.63h-9.2c-1.52 0-2.75-1.2-2.75-2.6 0-1.56 1.23-2.75 2.76-2.75h9.2c1.52 0 2.75 1.2 2.75 2.74 0 1.42-1.23 2.6-2.76 2.6zM241.86 558.12c-.6 0-1.23-.12-1.7-.6l-7.34-6.06c-1.07-.83-1.22-2.5-.3-3.8.9-1.08 2.6-1.32 3.82-.36l7.2 5.94c1.23.96 1.38 2.62.46 3.8-.76.72-1.38 1.08-2.14 1.08zM258.25 551.82c-1.38 0-2.6-1.2-2.6-2.74v-9.28c0-1.54 1.22-2.73 2.6-2.73 1.53 0 2.75 1.2 2.75 2.73v9.28c0 1.55-1.22 2.74-2.75 2.74zM274.64 558.12c-.62 0-1.54-.36-2-1.07-.9-1.07-.76-2.85.46-3.8l7.2-5.95c1.08-.96 2.9-.72 3.83.35.92 1.2.77 2.98-.3 3.8l-7.36 6.08c-.6.47-1.07.6-1.83.6zM290.4 572.63h-9.33c-1.38 0-2.6-1.2-2.6-2.6 0-1.56 1.22-2.75 2.6-2.75h9.34c1.54 0 2.77 1.2 2.77 2.74 0 1.42-1.23 2.6-2.76 2.6z" stroke="#000" stroke-opacity="0" stroke-width=".93" fill="#ffa400"/><path d="M140 610.7v-30.1h7.2v23.8H159v6.3h-19zM183.04 600.35v1.67h-15.47c.15.6.3 1.2.6 1.66.32.36.63.83 1.1 1.2.44.35 1.06.6 1.52.82.6.12 1.2.24 1.83.24 1.07 0 2-.12 2.75-.6.77-.35 1.38-.94 1.84-1.66l4.9 3.1c-1.07 1.54-2.3 2.5-3.83 3.33-1.7.84-3.68 1.3-5.83 1.3-1.53 0-3.06-.34-4.44-.82-1.38-.47-2.6-1.2-3.68-2.14-1.07-.95-1.83-2.14-2.6-3.45-.6-1.44-.92-3.1-.92-4.77 0-1.78.3-3.33.92-4.76.6-1.3 1.53-2.6 2.45-3.45 1.07-.95 2.3-1.78 3.68-2.26 1.38-.6 2.9-.83 4.44-.83 1.68 0 3.06.24 4.3.7 1.37.6 2.44 1.32 3.36 2.27.92.96 1.68 2.27 2.14 3.57.6 1.55.92 3.1.92 4.88zm-6.43-2.62c0-1.07-.45-2.02-1.06-2.85-.62-.83-1.84-1.2-3.22-1.2-.6 0-1.23 0-1.84.25-.6.24-1.07.47-1.53.83-.46.36-.77.83-.92 1.3-.3.48-.46 1.08-.46 1.55h9.04zM194.22 594.76v8.1c0 1.06.16 1.77.46 2.25.46.48 1.07.72 2.15.72h1.07c.3-.12.76-.24.92-.35l.15 5.1c-.46.25-1.23.37-2 .5-.6.1-1.37.22-2.14.22-1.37 0-2.6-.24-3.52-.6-.9-.36-1.83-.83-2.3-1.43-.6-.7-1.06-1.54-1.2-2.5-.32-.95-.47-1.9-.47-3.1v-8.9h-3.37v-5.24h3.37v-5.6h6.9v5.6h4.9v5.23h-4.9zM221.64 595.83c-.46-.6-1.23-1.07-2-1.43-.6-.35-1.52-.6-2.3-.6-.76 0-1.2.13-1.83.37-.6.35-.75.7-.75 1.3 0 .6.15 1.07.92 1.3.6.37 1.53.6 2.9.84.93.25 1.54.5 2.46.85.76.35 1.53.7 2.14 1.2.6.46 1.23 1.06 1.53 1.9.46.7.62 1.54.62 2.5 0 1.3-.3 2.5-.92 3.44-.46.94-1.08 1.65-2.15 2.25-.76.47-1.84.83-2.75 1.2-1.23.23-2.15.34-3.37.34-1.7 0-3.37-.36-5.06-.84-1.68-.6-3.06-1.43-3.98-2.5l3.82-4.04c.6.6 1.38 1.2 2.3 1.66.9.48 2 .72 2.9.72.62 0 1.23-.12 1.7-.48.6-.24.9-.7.9-1.3 0-.72-.45-1.2-1.06-1.55-.62-.24-1.84-.6-3.22-.95-.77-.12-1.38-.36-2.14-.6-.77-.36-1.38-.7-2-1.2-.6-.46-1.07-1.06-1.37-1.77-.46-.72-.62-1.55-.62-2.5 0-1.3.32-2.26.93-3.2.46-.96 1.23-1.56 2-2.15.76-.6 1.83-1.07 2.75-1.2 1.07-.35 2.15-.35 3.06-.35 1.7 0 3.22.24 4.75.7 1.52.5 2.75 1.2 3.82 2.27l-3.98 3.8zM140 645.55v-30.1h20.22v6.2h-13.17v5.7h12.4v5.7h-12.4v6.32h13.93v6.18H140zM179.36 645.55v-11.53c0-.6-.15-1.08-.15-1.67-.14-.6-.3-1.07-.45-1.43-.3-.35-.6-.7-.92-.95-.46-.24-1.07-.36-1.68-.36-.6 0-1.23.13-1.7.37-.45.36-.75.6-1.2 1.07-.32.48-.47.95-.78 1.55-.15.46-.15 1.06-.15 1.65v11.42h-7.05V624.5H172v2.85c.32-.47.63-.83 1.08-1.3.46-.36.92-.84 1.38-1.08.62-.23 1.23-.6 1.84-.7.6-.25 1.23-.37 2-.37 1.37 0 2.6.36 3.67.84 1.07.47 1.68 1.2 2.45 1.9.6.83.92 1.78 1.22 2.85.3.95.46 2.02.46 3.1v13.07h-6.74zM204.33 631.28c-.3-.48-.92-.95-1.53-1.3-.77-.25-1.53-.5-2.14-.5-.77 0-1.38.25-2 .5-.46.35-1.07.7-1.37 1.3-.47.48-.78.95-1.1 1.66-.3.6-.3 1.3-.3 2.03 0 .7 0 1.42.3 2.02.17.7.63 1.18 1.1 1.65.44.48.9.96 1.52 1.2.6.35 1.38.47 2 .47.75 0 1.52 0 2.13-.36.77-.23 1.23-.6 1.7-1.2l3.82 4.77c-.77.83-2 1.55-3.37 1.9-1.38.48-2.76.84-4.3.84-1.68 0-3.2-.36-4.74-.84-1.38-.35-2.6-1.18-3.83-2.14-.92-.96-1.84-2.15-2.45-3.57-.6-1.43-.92-2.98-.92-4.76 0-1.8.3-3.33.92-4.64.6-1.43 1.53-2.62 2.45-3.57 1.07-.95 2.45-1.8 3.83-2.26 1.53-.6 3.06-.7 4.75-.7.77 0 1.54.1 2.15.1.77.24 1.53.48 2.15.6.76.24 1.38.6 2 .95.6.36 1.2.7 1.52 1.2l-4.3 4.63zM224.7 630.2c-.3-.1-.76-.23-.92-.23h-.92c-.9 0-1.68.24-2.3.48-.6.35-1.06.83-1.52 1.2-.3.46-.62 1.06-.77 1.65-.3.48-.3.95-.3 1.43v10.82h-7.05v-21.17h6.74v3.1h.15c.47-1.08 1.24-1.9 2.3-2.62 1.08-.6 2.15-.96 3.38-.96H225l-.3 6.3zM241.1 648.77c-.47 1.07-.93 2.02-1.4 2.97-.6.83-1.2 1.55-1.98 2.26-.6.6-1.53.95-2.45 1.43-.92.24-2.14.35-3.37.35h-2.14c-.62-.1-1.23-.23-1.7-.35l.63-5.95c.44.12.75.24 1.2.24.32.12.78.12 1.08.12 1.07 0 1.84-.24 2.3-.72.46-.47.92-1.2 1.23-2.14l.62-1.78-8.73-20.82h7.65l4.74 13.68h.15l4.13-13.68h7.36l-9.35 24.4zM275.86 634.97c0 1.42-.15 2.85-.6 4.28-.47 1.43-1.08 2.5-2 3.57-.77 1.07-1.84 1.9-3.07 2.6-1.23.6-2.76.85-4.3.85-1.37 0-2.6-.24-3.82-.72-1.08-.47-2-1.2-2.6-2.14h-.16v12.62h-7.05v-31.28H259v2.6c.63-.82 1.7-1.65 2.77-2.25 1.07-.72 2.45-.96 4.14-.96 1.38 0 2.92.24 4.14.95 1.23.6 2.3 1.42 3.22 2.37.76 1.07 1.38 2.26 2 3.57.45 1.07.6 2.38.6 3.93zm-6.74 0c0-.72-.15-1.3-.3-2.03-.16-.6-.62-1.18-.92-1.66-.3-.48-.92-.95-1.54-1.2-.76-.23-1.37-.47-2.14-.47-.92 0-1.53.25-2.14.5-.77.23-1.23.7-1.7 1.18-.45.48-.75 1.2-.9 1.78-.3.72-.47 1.3-.47 2.03 0 .58.17 1.3.47 1.9.16.7.46 1.18.92 1.77.45.48.9.96 1.68 1.2.6.35 1.22.47 2.14.47.77 0 1.53-.12 2.14-.48.62-.23 1.08-.7 1.54-1.2.3-.46.76-1.06.92-1.77.15-.72.3-1.44.3-2.03zM287.04 629.6v8.1c0 1.07.16 1.8.46 2.26.46.48 1.07.72 2.15.72h1.07c.46-.12.76-.24.92-.36l.15 5.1c-.47.25-1.08.37-1.85.5-.76.1-1.53.23-2.3.23-1.37 0-2.6-.24-3.52-.6-.92-.35-1.84-.83-2.3-1.42-.6-.72-1.07-1.55-1.22-2.5-.14-.95-.45-1.9-.45-3.1v-8.92h-3.37v-5.22h3.37v-5.6h6.9v5.6h4.9v5.23h-4.9zM205.56 580c-2.15 0-3.68 1.56-3.68 3.46 0 2.14 1.38 3.33 3.37 3.33h.46c-.3 1.42-1.68 2.6-3.2 2.73h-.16v3.33h.3c1.7-.24 3.22-.96 4.45-2.14 1.67-1.43 2.44-3.7 2.44-6.3 0-2.5-1.7-4.4-3.98-4.4z" stroke="#000" stroke-opacity="0" stroke-width=".93" fill="#003a70"/><path d="M558.45 368.1l107.8 34.66-9.66 30.08-107.82-34.67z" stroke="#000" stroke-opacity="0" stroke-width="2" fill="#fff" fill-opacity="0"/><use xlink:href="#b" transform="matrix(0.9519859929155694,0.3061415837362797,-0.3061415837362797,0.9519859929155694,561.6789150033428,374.3784834723023) translate(1.5999999999999943 14.6)"/><use xlink:href="#c" transform="matrix(0.9519859929155694,0.3061415837362797,-0.3061415837362797,0.9519859929155694,561.6789150033428,374.3784834723023) translate(21.599999999999994 14.6)"/><use xlink:href="#d" transform="matrix(0.9519859929155694,0.3061415837362797,-0.3061415837362797,0.9519859929155694,561.6789150033428,374.3784834723023) translate(72.45 14.6)"/><path d="M248.62 420.4l98.96-48.48 13.9 28.38-98.95 48.5z" stroke="#000" stroke-opacity="0" stroke-width="2" fill="#fff" fill-opacity="0"/><use xlink:href="#e" transform="matrix(0.8979871876704012,-0.4400216026285569,0.4400216026285569,0.8979871876704012,255.313866243843,422.703470347539) translate(2.0749999999999957 14.6)"/><use xlink:href="#f" transform="matrix(0.8979871876704012,-0.4400216026285569,0.4400216026285569,0.8979871876704012,255.313866243843,422.703470347539) translate(22.074999999999996 14.6)"/><use xlink:href="#d" transform="matrix(0.8979871876704012,-0.4400216026285569,0.4400216026285569,0.8979871876704012,255.313866243843,422.703470347539) translate(68.975 14.6)"/><path d="M300 562.7h160v33.1H300z" stroke="#000" stroke-opacity="0" stroke-width="2" fill="#fff" fill-opacity="0"/><use xlink:href="#g" transform="matrix(1,0,0,1,305,567.6949146254764) translate(5.199999999999989 15.6)"/><use xlink:href="#h" transform="matrix(1,0,0,1,305,567.6949146254764) translate(25.19999999999999 15.6)"/><use xlink:href="#i" transform="matrix(1,0,0,1,305,567.6949146254764) translate(73.1 15.6)"/><path d="M719.24 597.3c1.1-1.1.9-3.18 0-4.35l-5.8-5.8-25.87-25.24c-1.14-1.1-2.8-1.1-4.14 0-1.14 1.18-1.48 3.25 0 4.35l27.2 26.7c1.1 1.17 1.1 3.24 0 4.34l-27.77 27.65c-1.1 1.1-1.1 3.18 0 4.35 1.14 1.1 3.2.9 4.14 0l25.67-25.6.2-.2 6.37-6.2zM600.76 597.3c-1.1-1.1-.9-3.18 0-4.35l5.8-5.8 25.87-25.24c1.14-1.1 2.8-1.1 4.14 0 1.14 1.18 1.48 3.25 0 4.35l-26.62 26.7c-1.1 1.17-1.1 3.24 0 4.34l27.2 27.65c1.1 1.1 1.1 3.18 0 4.35-1.15 1.1-3.2.9-4.15 0l-26.24-25.25-.2-.13-5.8-6.63z" stroke="#000" stroke-opacity="0" stroke-width="2.34" fill="#3999c6"/><path d="M689.25 541.04h-36.58L633 596.77l24 .1-18.75 55.17 51.74-73.6h-25.14l24.4-37.4z" stroke="#000" stroke-opacity="0" stroke-width="2.34" fill="#fcd116"/><path d="M664.85 578.45l24.4-37.4h-19.13l-20.22 46.28 23.95.22-35.6 64.5 51.74-73.6h-25.15z" stroke="#000" stroke-opacity="0" stroke-width="2.34" fill="#ff8c00" fill-opacity=".3"/><path d="M653.9 543.42l-5.7 19.15-14.53.94-32.2 31.54 32.3 32.68 12.45 5.2-5.8 14.27 11.85-16.56 30.58-1.35 34.88-34.05-31.86-31.95-11.86-.52 11.52-19.67z" stroke="#000" stroke-opacity="0" stroke-width="0" fill-opacity="0"/><path d="M749.24 668.36c-10.1 7.77-20.98 11.43-33.63 11.43-16.75 0-33.3-7.56-44.17-21.76-18.64-24.3-13.98-59.17 10.33-77.8 10.1-7.78 21.97-11.45 33.74-11.45 16.65 0 33.2 7.54 44.07 21.75 18.64 24.3 13.98 59.16-10.33 77.8" stroke="#000" stroke-opacity="0" stroke-width="3" fill="#59b4d9"/><path d="M739.05 634c4.03 5.28 11.47 6.24 16.7 2.22.3-.2.5-.4.7-.67 5.45 3.83 9.07 6.32 11.2 7.66.6-1.52 1.1-3.05 1.5-4.68-3.42-2.6-6.24-4.8-9.57-7.48 1.4-3.73 1-8.04-1.6-11.5-3.63-4.78-10.17-6.03-15.4-3.06-6.55-5.94-12.1-11.1-18.43-17.34 20.44-11.02 34.83-9.4 34.83-9.4-2.42-3.06-5.13-5.74-7.95-8.14-8.66-1.34-21.95-1.24-37.15 6.9-5.64-5.94-10.27-11.02-15.5-17.15-2.72.86-4.93 1.73-7.35 2.97 3.82 6.42 9.06 12.75 15 19.07-5.84 4.1-10.47 8.13-15.4 13.4-.7.67-1.3 1.34-1.92 2.02-3.1-.68-6.03-.48-9.15.67-4.93-10.94-4.53-19.66-3.82-24.06-2.12 2.2-4.13 4.7-5.94 7.18-1.32 5.37-1.72 13.13 2.2 22.42-4.73 6.13-4.73 14.28 0 20.32.4.57.8 1.05 1.2 1.43-1.9 6.7-2.9 12.54-3.2 19.44.5.77.5 1.34 1 2 2.7 3.46 6.04 6.34 9.26 8.92-.4-6.13 0-15.13 3.82-25.3 2.72.3 5.14-.1 7.75-1.24 1.4 1.25 2.82 2.6 4.43 3.84 5.34 4.2 10.17 7.28 16.2 10.35-.3 2.88.4 5.47 2.13 7.77 3.7 4.88 10.66 5.74 15.5 2 1-.76 1.8-1.53 2.5-2.67 8.56 1.9 16.1 2.3 21.75 2.3.8 0 4.83-5.47 7.15-8.82-3.43.77-13.6 2.1-27.38-1.82-.3-1.73-.9-3.07-2.02-4.4-3.42-4.6-9.86-5.56-14.6-2.5-5.63-3.06-10.06-6.04-15.1-9.96l-2.9-2.5c3.2-5.26 3.5-11.3.7-16.76.6-.67 1.2-1.25 1.9-1.92 5.14-4.8 9.97-8.62 14.5-11.7l-.6-.56.6.57c6.84 6.42 14.2 12.46 21.14 17.92-1.8 3.83-1.5 8.62 1.3 12.26z" stroke="#000" stroke-opacity="0" stroke-width="3" fill="#fff"/><use xlink:href="#j" transform="matrix(1,0,0,1,630,688.7924703093918) translate(42.599999999999994 14.4)"/><use xlink:href="#k" transform="matrix(1,0,0,1,630,688.7924703093918) translate(86.5 14.4)"/><path d="M522.26 800c0 33.12-26.88 60-60 60-33.12 0-60-26.88-60-60 0-33.12 26.88-60 60-60 33.12 0 60 26.88 60 60z" stroke="#000" stroke-opacity="0" fill="#0072c6"/><path d="M419.87 842.43c-23.45-23.46-23.45-61.46 0-84.8 23.36-23.47 61.36-23.47 84.8 0l-84.8 84.8z" stroke="#000" stroke-opacity="0" fill="#fff" fill-opacity=".2"/><path d="M517.46 800c0-12.35-4.2-24.25-11.93-34.06l-.44-.44c-.23-.22-.23-.44-.45-.66l-3.53-3.74c-10.38-10.58-24.07-16.3-38.86-16.3h-.44c-14.58.2-28.05 5.72-38.42 16.08l-3.76 3.96c-.22.22-.22.44-.44.66l-.44.22c-7.5 9.8-11.7 21.93-11.7 34.27 0 12.33 4.2 24.23 11.92 34.04l.44.44c.22.22.22.44.44.66l3.54 3.74c10.37 10.36 23.84 16.1 38.42 16.1h.44c14.57 0 28.48-5.74 38.86-16.1l3.53-3.96c.22-.22.22-.44.44-.66l.43-.44c7.73-9.37 11.93-21.5 11.93-33.83zm-22.3-36.04c-.22 0-.44.22-.67.22-.45.22-.9.44-1.1.44-.9.44-2 .66-3.1 1.1-.22 0-.44.22-.66.22-1.33.45-2.43.67-3.76 1.1-.22 0-.66.23-.88.23-2-5.3-4.42-9.92-7.3-13.44 6.42 1.98 12.38 5.5 17.46 10.13zm-33.34-12.78h.22c5.96 0 12.14 6.4 16.56 17.4-5.08.9-10.6 1.33-16.34 1.33s-11.48-.43-16.78-1.3c4.2-10.8 10.37-17.2 16.34-17.42zm-15.68 2.87c-2.65 3.52-5.08 7.93-7.07 13.22h-.44c-1.32-.44-2.65-.66-3.75-1.1-.22 0-.44-.23-.66-.23-.9-.44-2-.88-2.87-1.32-.45-.22-.67-.22-1.1-.44-.23-.22-.45-.22-.9-.44 5.1-4.2 10.6-7.7 16.8-9.7zm-16.78 81.97c.22 0 .44-.22.66-.22.44-.22.66-.22 1.1-.44.9-.44 2-.66 3.1-1.1.22 0 .44-.22.66-.22 1.32-.45 2.43-.67 3.75-1.1h.44c2 5.06 4.42 9.7 7.07 13.22-6.18-2.2-11.92-5.73-16.78-10.14zm32.68 12.78h-.22c-5.97-.22-12.15-6.4-16.34-17.2 5.3-.87 11.04-1.3 16.78-1.3 5.74 0 11.04.43 16.34 1.3-4.2 10.8-10.6 17.2-16.56 17.2zm15.67-2.64c2.88-3.53 5.3-8.16 7.3-13.45.22 0 .66.23.88.23 1.33.44 2.65.66 3.76 1.1.22 0 .44.23.66.23 1.1.44 2 .66 3.1 1.1.43.22.65.22 1.1.44.22 0 .44.22.88.44-5.3 4.4-11.26 7.93-17.67 9.92zm22.3-15.2c-.65 0-1.1-.23-1.75-.45-.66-.2-1.55-.65-2.2-.87-.23 0-.45-.22-.67-.22-2.65-1.1-5.52-1.75-8.4-2.75.67-2.64 1.33-5.3 1.77-7.93h-6.62c-.44 2.42-.88 4.63-1.55 6.6-5.74-1.1-11.92-1.53-18.32-1.53-6.63 0-12.8.65-18.77 1.75-.67-2.2-1.1-4.4-1.56-6.83h-6.62c.44 2.87 1.1 5.5 1.77 8.15-2.66.78-5.3 1.66-7.74 2.54-.22.23-.66.23-.88.45-.67.22-1.55.66-2.2.88-.45 0-1.12.22-1.56.44-6.62-8.04-10.38-17.96-11.04-28.1h5.52v-6.4h-5.52c.66-10.12 4.42-19.82 10.82-27.64l.22-.22c.44.23 1.1.45 1.55.67.88.44 1.54.66 2.43 1.1.22 0 .44.22.66.22 2.43.87 5.08 1.87 7.95 2.53-.65 2.42-1.1 4.84-1.54 7.27h6.63c.43-1.98.87-4.2 1.3-5.95 5.97 1.1 12.38 1.76 18.78 1.76s12.58-.65 18.32-1.53c.45 1.76.9 3.75 1.33 5.95h6.62c-.44-2.42-.88-4.85-1.54-7.27 2.88-.66 5.53-1.66 8.18-2.76.22 0 .66-.23.88-.23.88-.22 1.55-.66 2.43-.88.43-.23 1.1-.45 1.54-.67 6.4 8.04 10.37 17.74 11.04 27.88h-6.63v6.4h6.63c-1.1 9.9-4.86 19.83-11.27 27.65z" stroke="#000" stroke-opacity="0" fill="#fff" fill-opacity=".8"/><path d="M448.4 799.64c0 2.63-.34 4.88-1.03 6.73-.7 1.86-1.68 3.37-2.94 4.54-1.28 1.18-2.84 2.06-4.66 2.6-1.83.55-4 .83-6.54.83h-6.8c-.5 0-.9-.14-1.24-.43-.34-.28-.5-.74-.5-1.4v-24.86c0-.66.16-1.12.5-1.4.32-.3.73-.43 1.23-.43h7.3c2.55 0 4.7.3 6.46.9 1.77.6 3.26 1.48 4.47 2.65 1.2 1.17 2.13 2.62 2.77 4.33.64 1.7.95 3.7.95 5.96zm-6 .2c0-1.34-.17-2.6-.48-3.76-.3-1.17-.83-2.17-1.5-3.02-.73-.86-1.63-1.52-2.72-2-1.1-.5-2.53-.7-4.3-.7h-2.95v19.38h3.04c1.57 0 2.9-.2 4-.6 1.08-.43 2-1.06 2.72-1.88.73-.83 1.28-1.86 1.63-3.08.36-1.23.55-2.68.55-4.34zM476.67 812.3c0 .35-.05.64-.16.9-.14.3-.28.5-.5.66-.18.2-.4.32-.7.4-.25.1-.54.12-.82.12H472c-.5 0-.93-.06-1.33-.15-.35-.1-.7-.28-1.03-.57-.3-.26-.6-.63-.9-1.1-.3-.45-.63-1.06-1-1.8l-7.1-13.34c-.4-.78-.84-1.64-1.26-2.56-.42-.92-.8-1.8-1.13-2.67h-.05c.05 1.05.1 2.1.12 3.15.05 1.03.05 2.13.05 3.25v14.9c0 .16-.05.3-.12.42-.07.1-.2.2-.42.28-.2.1-.47.15-.8.2-.33.03-.78.06-1.3.06-.5 0-.94-.03-1.3-.06-.32-.05-.58-.1-.76-.2-.22-.08-.33-.17-.4-.28-.08-.12-.12-.26-.12-.4v-25.64c0-.7.2-1.2.6-1.55.4-.35.9-.52 1.5-.52h3.1c.56 0 1.03.07 1.4.15.38.1.74.26 1.04.46.27.24.58.56.84.93.26.4.52.9.8 1.47l5.55 10.4.95 1.87c.33.6.64 1.24.92 1.84l.87 1.8c.26.6.54 1.17.8 1.77h.03c-.05-1.03-.08-2.12-.1-3.22-.02-1.12-.02-2.18-.02-3.2v-13.38c0-.14.02-.3.12-.4.1-.12.23-.23.44-.32.22-.08.48-.14.8-.17.36-.03.8-.06 1.33-.06.5 0 .92.03 1.25.06.33.03.6.1.77.17.2.12.33.2.4.32.07.1.1.26.1.4v25.64h.02zM499.8 805.77c0 1.5-.3 2.83-.84 3.96-.56 1.12-1.33 2.06-2.28 2.83-.95.77-2.07 1.33-3.35 1.72-1.27.38-2.65.56-4.1.56-1 0-1.9-.1-2.74-.24-.85-.18-1.6-.35-2.24-.6-.65-.23-1.2-.46-1.62-.7-.43-.27-.75-.47-.95-.68-.2-.18-.33-.44-.4-.83-.1-.36-.14-.86-.14-1.54 0-.48.02-.86.04-1.16.04-.3.08-.56.15-.73.08-.2.15-.33.26-.42.12-.1.25-.12.4-.12.2 0 .5.12.88.36.37.23.86.5 1.43.8.6.28 1.3.55 2.12.78.82.27 1.77.4 2.83.4.7 0 1.34-.1 1.9-.28.56-.17 1.02-.4 1.42-.7.4-.33.7-.7.9-1.16.2-.44.3-.94.3-1.5 0-.66-.18-1.22-.53-1.7-.36-.43-.8-.85-1.38-1.2-.56-.4-1.2-.7-1.92-1.04-.73-.3-1.47-.65-2.24-1-.76-.35-1.5-.74-2.2-1.18-.74-.47-1.37-1-1.95-1.63-.56-.63-1.03-1.37-1.38-2.22-.35-.86-.52-1.86-.52-3.08 0-1.35.26-2.57.76-3.6.52-1.03 1.2-1.9 2.06-2.57.86-.68 1.87-1.18 3.04-1.54 1.17-.33 2.4-.5 3.7-.5.7 0 1.37.05 2.04.14.67.12 1.32.23 1.9.4.57.2 1.1.4 1.56.63.45.2.77.4.9.53.14.15.26.27.3.4.05.08.1.22.12.4.04.15.08.4.08.62.02.27.04.6.04.98 0 .4-.02.8-.04 1.06-.02.3-.06.56-.1.74-.07.18-.14.32-.24.4-.1.1-.22.16-.4.16-.14 0-.4-.12-.75-.32s-.77-.42-1.3-.65c-.5-.28-1.1-.5-1.78-.7-.67-.2-1.42-.3-2.22-.3-.63 0-1.2.1-1.66.25-.46.15-.86.35-1.17.65-.32.26-.56.6-.7.97-.16.4-.23.77-.23 1.2 0 .63.16 1.2.5 1.64.35.48.82.9 1.4 1.25.57.35 1.24.7 1.97 1 .76.33 1.5.65 2.26 1 .77.36 1.5.78 2.26 1.22.73.44 1.38.98 1.95 1.63.58.62 1.03 1.35 1.38 2.18.36.86.54 1.86.54 3z" stroke="#000" stroke-opacity="0" fill="#fff"/><use xlink:href="#l" transform="matrix(1,0,0,1,372.25757549465624,869) translate(45.074999999999996 14.4)"/><use xlink:href="#m" transform="matrix(1,0,0,1,372.25757549465624,869) translate(97.025 14.4)"/><path d="M401.72 401.24l-7.5.15-8.37.52-8.25.87-8.1 1.18-8 1.53-7.83 1.84-7.7 2.15-7.54 2.44-7.38 2.75-7.23 3.03-7.05 3.3-6.87 3.6-6.68 3.86-6.5 4.1-6.27 4.38-6.07 4.6-5.85 4.84-5.62 5.06-5.37 5.27-5.14 5.48-4.9 5.67-4.65 5.85-4.38 6.03-4.1 6.2-3.86 6.35-3.57 6.5-3.3 6.66-3.03 6.8-2.74 6.9-2.46 7.07-2.17 7.2-1.87 7.3-1.58 7.44-1.28 7.57-.97 7.7-.6 7.1" stroke="#000" stroke-width="2" fill="none"/><path d="M403.02 401.96l.2.24-1.5.04-.04-2 .66-.02zm2.72-.2l-1.55-1.58 1.5-.03z"/><path d="M216.65 585.83l-4.37-14.35 9.27.17z" stroke="#000" stroke-width="2"/><path d="M281.46 596.54h300.5" stroke="#000" stroke-width="2" fill="none"/><path d="M281.5 597.54h-1.04v-2h1.03z"/><path d="M597.23 596.54l-14.26 4.64v-9.27z" stroke="#000" stroke-width="2"/><path d="M281.46 596.57l9.6.2 10.48.66 10.32 1.08 10.07 1.5 9.78 1.86 9.44 2.2 9.04 2.53 8.6 2.8 8.2 3.03 7.73 3.25 7.3 3.43 6.85 3.6 6.43 3.7 6 3.82 5.64 3.9 5.25 4 4.9 4.04 4.55 4.1 4.25 4.17 3.95 4.2 3.68 4.26 3.4 4.3 3.16 4.33 2.92 4.4 2.7 4.45 2.48 4.5 2.27 4.6 2.07 4.63 1.87 4.74 1.68 4.82 1.5 4.93 1.28 5.02 1.1 5.16.9 5.3.18 1.47" stroke="#000" stroke-width="2" fill="none"/><path d="M281.5 595.57l-.04 2-1-.03v-2z"/><path d="M462.04 736.77l-5.6-13.92 9.26-.63z" stroke="#000" stroke-width="2"/><path d="M522.8 401.24l9.07.2 9.98.6 9.83 1.05 9.65 1.4 9.45 1.8 9.2 2.17 8.95 2.5 8.66 2.8 8.35 3.12 8.03 3.36 7.7 3.63 7.36 3.84 7.02 4.05 6.67 4.22 6.34 4.4 6 4.55 5.65 4.68 5.34 4.8 5.02 4.93 4.72 5.02 4.4 5.1 4.14 5.22 3.85 5.3 3.57 5.38 3.3 5.47 3.07 5.56 2.8 5.65 2.56 5.75 2.32 5.85 2.07 5.96 1.82 6.07 1.6 6.2 1.34 6.34 1.1 6.5.7 5.6" stroke="#000" stroke-width="2" fill="none"/><path d="M522.84 400.24l-.04 2-1.55-.04.25-.24.67-1.74z"/><path d="M715.32 565.56l-5.43-13.98 9.25-.52z" stroke="#000" stroke-width="2"/><path d="M481.13 562.7h97.74v33.1h-97.74z" stroke="#000" stroke-opacity="0" stroke-width="2" fill="#fff" fill-opacity="0"/><g><use xlink:href="#n" transform="matrix(1,0,0,1,486.12878774732815,567.6949146254764) translate(15.199999999999989 15.6)"/></g><g><path d="M459.73 620l41.46 91-36.4 16.58-41.47-91z" stroke="#000" stroke-opacity="0" stroke-width="2" fill="#fff" fill-opacity="0"/></g><g><use xlink:href="#o" transform="matrix(0.41460611729086766,0.9100009711560704,-0.9100009711560704,0.41460611729086766,457.2503147839083,626.6230354422346) translate(13.074999999999996 18.6)"/></g><defs><path d="M133-34C117-15 103 5 69 4 32 3 11-16 11-54c-1-60 55-63 116-61 1-26-3-47-28-47-18 1-26 9-28 27l-52-2c7-38 36-58 82-57s74 22 75 68l1 82c-1 14 12 18 25 15v27c-30 8-71 5-69-32zm-48 3c29 0 43-24 42-57-32 0-66-3-65 30 0 17 8 27 23 27" id="p"/><path d="M135-194c53 0 70 44 70 98 0 56-19 98-73 100-31 1-45-17-59-34 3 33 2 69 2 105H25l-1-265h48c2 10 0 23 3 31 11-24 29-35 60-35zM114-30c33 0 39-31 40-66 0-38-9-64-40-64-56 0-55 130 0 130" id="q"/><path d="M137-138c1-29-70-34-71-4 15 46 118 7 119 86 1 83-164 76-172 9l43-7c4 19 20 25 44 25 33 8 57-30 24-41C81-84 22-81 20-136c-2-80 154-74 161-7" id="r"/><path d="M185-48c-13 30-37 53-82 52C43 2 14-33 14-96s30-98 90-98c62 0 83 45 84 108H66c0 31 8 55 39 56 18 0 30-7 34-22zm-45-69c5-46-57-63-70-21-2 6-4 13-4 21h74" id="s"/><path d="M135-150c-39-12-60 13-60 57V0H25l-1-190h47c2 13-1 29 3 40 6-28 27-53 61-41v41" id="t"/><path d="M128 0H69L1-190h53L99-40l48-150h52" id="u"/><path d="M25-224v-37h50v37H25zM25 0v-190h50V0H25" id="v"/><path d="M190-63c-7 42-38 67-86 67-59 0-84-38-90-98-12-110 154-137 174-36l-49 2c-2-19-15-32-35-32-30 0-35 28-38 64-6 74 65 87 74 30" id="w"/><path d="M14-72v-43h91v43H14" id="x"/><path d="M220-157c-53 9-28 100-34 157h-49v-107c1-27-5-49-29-50C55-147 81-57 75 0H25l-1-190h47c2 12-1 28 3 38 10-53 101-56 108 0 13-22 24-43 59-42 82 1 51 116 57 194h-49v-107c-1-25-5-48-29-50" id="y"/><path d="M135-194c52 0 70 43 70 98 0 56-19 99-73 100-30 1-46-15-58-35L72 0H24l1-261h50v104c11-23 29-37 60-37zM114-30c31 0 40-27 40-66 0-37-7-63-39-63s-41 28-41 65c0 36 8 64 40 64" id="z"/><path d="M110-194c64 0 96 36 96 99 0 64-35 99-97 99-61 0-95-36-95-99 0-62 34-99 96-99zm-1 164c35 0 45-28 45-65 0-40-10-65-43-65-34 0-45 26-45 65 0 36 10 65 43 65" id="A"/><path d="M115-3C79 11 28 4 28-45v-112H4v-33h27l15-45h31v45h36v33H77v99c-1 23 16 31 38 25v30" id="B"/><g id="a"><use transform="matrix(0.04753086419753085,0,0,0.04753086419753085,0,0)" xlink:href="#p"/><use transform="matrix(0.04753086419753085,0,0,0.04753086419753085,9.50617283950617,0)" xlink:href="#q"/><use transform="matrix(0.04753086419753085,0,0,0.04753086419753085,19.91543209876543,0)" xlink:href="#q"/><use transform="matrix(0.04753086419753085,0,0,0.04753086419753085,30.32469135802469,0)" xlink:href="#r"/><use transform="matrix(0.04753086419753085,0,0,0.04753086419753085,39.83086419753086,0)" xlink:href="#s"/><use transform="matrix(0.04753086419753085,0,0,0.04753086419753085,49.33703703703702,0)" xlink:href="#t"/><use transform="matrix(0.04753086419753085,0,0,0.04753086419753085,55.99135802469135,0)" xlink:href="#u"/><use transform="matrix(0.04753086419753085,0,0,0.04753086419753085,65.49753086419753,0)" xlink:href="#v"/><use transform="matrix(0.04753086419753085,0,0,0.04753086419753085,70.25061728395062,0)" xlink:href="#w"/><use transform="matrix(0.04753086419753085,0,0,0.04753086419753085,79.7567901234568,0)" xlink:href="#s"/><use transform="matrix(0.04753086419753085,0,0,0.04753086419753085,89.26296296296297,0)" xlink:href="#x"/><use transform="matrix(0.04753086419753085,0,0,0.04753086419753085,94.91913580246914,0)" xlink:href="#p"/><use transform="matrix(0.04753086419753085,0,0,0.04753086419753085,104.4253086419753,0)" xlink:href="#w"/><use transform="matrix(0.04753086419753085,0,0,0.04753086419753085,113.93148148148147,0)" xlink:href="#y"/><use transform="matrix(0.04753086419753085,0,0,0.04753086419753085,129.14135802469136,0)" xlink:href="#s"/><use transform="matrix(0.04753086419753085,0,0,0.04753086419753085,138.64753086419753,0)" xlink:href="#z"/><use transform="matrix(0.04753086419753085,0,0,0.04753086419753085,149.05679012345678,0)" xlink:href="#A"/><use transform="matrix(0.04753086419753085,0,0,0.04753086419753085,159.46604938271602,0)" xlink:href="#B"/></g><path d="M126-127c33 6 58 20 58 59 0 88-139 92-164 29-3-8-5-16-6-25l32-3c6 27 21 44 54 44 32 0 52-15 52-46 0-38-36-46-79-43v-28c39 1 72-4 72-42 0-27-17-43-46-43-28 0-47 15-49 41l-32-3c6-42 35-63 81-64 48-1 79 21 79 65 0 36-21 52-52 59" id="C"/><path d="M33 0v-38h34V0H33" id="D"/><g id="b"><use transform="matrix(0.05,0,0,0.05,0,0)" xlink:href="#C"/><use transform="matrix(0.05,0,0,0.05,10,0)" xlink:href="#D"/></g><path d="M24-231v-30h32v30H24zM24 0v-190h32V0H24" id="E"/><path d="M117-194c89-4 53 116 60 194h-32v-121c0-31-8-49-39-48C34-167 62-67 57 0H25l-1-190h30c1 10-1 24 2 32 11-22 29-35 61-36" id="F"/><path d="M135-143c-3-34-86-38-87 0 15 53 115 12 119 90S17 21 10-45l28-5c4 36 97 45 98 0-10-56-113-15-118-90-4-57 82-63 122-42 12 7 21 19 24 35" id="G"/><path d="M59-47c-2 24 18 29 38 22v24C64 9 27 4 27-40v-127H5v-23h24l9-43h21v43h35v23H59v120" id="H"/><path d="M141-36C126-15 110 5 73 4 37 3 15-17 15-53c-1-64 63-63 125-63 3-35-9-54-41-54-24 1-41 7-42 31l-33-3c5-37 33-52 76-52 45 0 72 20 72 64v82c-1 20 7 32 28 27v20c-31 9-61-2-59-35zM48-53c0 20 12 33 32 33 41-3 63-29 60-74-43 2-92-5-92 41" id="I"/><path d="M24 0v-261h32V0H24" id="J"/><g id="c"><use transform="matrix(0.05,0,0,0.05,0,0)" xlink:href="#E"/><use transform="matrix(0.05,0,0,0.05,3.95,0)" xlink:href="#F"/><use transform="matrix(0.05,0,0,0.05,13.949999999999998,0)" xlink:href="#G"/><use transform="matrix(0.05,0,0,0.05,22.95,0)" xlink:href="#H"/><use transform="matrix(0.05,0,0,0.05,27.950000000000003,0)" xlink:href="#I"/><use transform="matrix(0.05,0,0,0.05,37.95,0)" xlink:href="#J"/><use transform="matrix(0.05,0,0,0.05,41.900000000000006,0)" xlink:href="#J"/></g><path d="M96-169c-40 0-48 33-48 73s9 75 48 75c24 0 41-14 43-38l32 2c-6 37-31 61-74 61-59 0-76-41-82-99-10-93 101-131 147-64 4 7 5 14 7 22l-32 3c-4-21-16-35-41-35" id="K"/><path d="M100-194c63 0 86 42 84 106H49c0 40 14 67 53 68 26 1 43-12 49-29l28 8c-11 28-37 45-77 45C44 4 14-33 15-96c1-61 26-98 85-98zm52 81c6-60-76-77-97-28-3 7-6 17-6 28h103" id="L"/><path d="M114-163C36-179 61-72 57 0H25l-1-190h30c1 12-1 29 2 39 6-27 23-49 58-41v29" id="M"/><g id="d"><use transform="matrix(0.05,0,0,0.05,0,0)" xlink:href="#K"/><use transform="matrix(0.05,0,0,0.05,9,0)" xlink:href="#L"/><use transform="matrix(0.05,0,0,0.05,19,0)" xlink:href="#M"/><use transform="matrix(0.05,0,0,0.05,24.95,0)" xlink:href="#H"/></g><path d="M27 0v-27h64v-190l-56 39v-29l58-41h29v221h61V0H27" id="N"/><g id="e"><use transform="matrix(0.05,0,0,0.05,0,0)" xlink:href="#N"/><use transform="matrix(0.05,0,0,0.05,10,0)" xlink:href="#D"/></g><path d="M100-194c62-1 85 37 85 99 1 63-27 99-86 99S16-35 15-95c0-66 28-99 85-99zM99-20c44 1 53-31 53-75 0-43-8-75-51-75s-53 32-53 75 10 74 51 75" id="O"/><path d="M85-194c31 0 48 13 60 33l-1-100h32l1 261h-30c-2-10 0-23-3-31C134-8 116 4 85 4 32 4 16-35 15-94c0-66 23-100 70-100zm9 24c-40 0-46 34-46 75 0 40 6 74 45 74 42 0 51-32 51-76 0-42-9-74-50-73" id="P"/><g id="f"><use transform="matrix(0.05,0,0,0.05,0,0)" xlink:href="#O"/><use transform="matrix(0.05,0,0,0.05,10,0)" xlink:href="#M"/><use transform="matrix(0.05,0,0,0.05,15.949999999999998,0)" xlink:href="#P"/><use transform="matrix(0.05,0,0,0.05,25.950000000000003,0)" xlink:href="#L"/><use transform="matrix(0.05,0,0,0.05,35.95,0)" xlink:href="#M"/></g><path d="M101-251c82-7 93 87 43 132L82-64C71-53 59-42 53-27h129V0H18c2-99 128-94 128-182 0-28-16-43-45-43s-46 15-49 41l-32-3c6-41 34-60 81-64" id="Q"/><g id="g"><use transform="matrix(0.05,0,0,0.05,0,0)" xlink:href="#Q"/><use transform="matrix(0.05,0,0,0.05,10,0)" xlink:href="#D"/></g><path d="M108 0H70L1-190h34L89-25l56-165h34" id="R"/><path d="M101-234c-31-9-42 10-38 44h38v23H63V0H32v-167H5v-23h27c-7-52 17-82 69-68v24" id="S"/><path d="M179-190L93 31C79 59 56 82 12 73V49c39 6 53-20 64-50L1-190h34L92-34l54-156h33" id="T"/><g id="h"><use transform="matrix(0.05,0,0,0.05,0,0)" xlink:href="#R"/><use transform="matrix(0.05,0,0,0.05,9,0)" xlink:href="#L"/><use transform="matrix(0.05,0,0,0.05,19,0)" xlink:href="#M"/><use transform="matrix(0.05,0,0,0.05,24.95,0)" xlink:href="#E"/><use transform="matrix(0.05,0,0,0.05,28.899999999999995,0)" xlink:href="#S"/><use transform="matrix(0.05,0,0,0.05,33.9,0)" xlink:href="#T"/></g><path d="M106-169C34-169 62-67 57 0H25v-261h32l-1 103c12-21 28-36 61-36 89 0 53 116 60 194h-32v-121c2-32-8-49-39-48" id="U"/><path d="M177-190C167-65 218 103 67 71c-23-6-38-20-44-43l32-5c15 47 100 32 89-28v-30C133-14 115 1 83 1 29 1 15-40 15-95c0-56 16-97 71-98 29-1 48 16 59 35 1-10 0-23 2-32h30zM94-22c36 0 50-32 50-73 0-42-14-75-50-75-39 0-46 34-46 75s6 73 46 73" id="V"/><g id="i"><use transform="matrix(0.05,0,0,0.05,0,0)" xlink:href="#K"/><use transform="matrix(0.05,0,0,0.05,9,0)" xlink:href="#U"/><use transform="matrix(0.05,0,0,0.05,19,0)" xlink:href="#I"/><use transform="matrix(0.05,0,0,0.05,29,0)" xlink:href="#J"/><use transform="matrix(0.05,0,0,0.05,32.95,0)" xlink:href="#J"/><use transform="matrix(0.05,0,0,0.05,36.900000000000006,0)" xlink:href="#L"/><use transform="matrix(0.05,0,0,0.05,46.900000000000006,0)" xlink:href="#F"/><use transform="matrix(0.05,0,0,0.05,56.900000000000006,0)" xlink:href="#V"/><use transform="matrix(0.05,0,0,0.05,66.9,0)" xlink:href="#L"/></g><path d="M123 10C108 53 80 86 19 72V37c35 8 53-11 59-39L3-190h52l48 148c12-52 28-100 44-148h51" id="W"/><path d="M85 4C-2 5 27-109 22-190h50c7 57-23 150 33 157 60-5 35-97 40-157h50l1 190h-47c-2-12 1-28-3-38-12 25-28 42-61 42" id="X"/><g id="j"><use transform="matrix(0.05,0,0,0.05,0,0)" xlink:href="#W"/><use transform="matrix(0.05,0,0,0.05,10,0)" xlink:href="#A"/><use transform="matrix(0.05,0,0,0.05,20.950000000000003,0)" xlink:href="#X"/><use transform="matrix(0.05,0,0,0.05,31.900000000000006,0)" xlink:href="#t"/></g><g id="k"><use transform="matrix(0.05,0,0,0.05,0,0)" xlink:href="#p"/><use transform="matrix(0.05,0,0,0.05,10,0)" xlink:href="#q"/><use transform="matrix(0.05,0,0,0.05,20.950000000000003,0)" xlink:href="#q"/><use transform="matrix(0.05,0,0,0.05,31.900000000000006,0)" xlink:href="#r"/></g><path d="M205 0l-28-72H64L36 0H1l101-248h38L239 0h-34zm-38-99l-47-123c-12 45-31 82-46 123h93" id="Y"/><path d="M9 0v-24l116-142H16v-24h144v24L44-24h123V0H9" id="Z"/><path d="M84 4C-5 8 30-112 23-190h32v120c0 31 7 50 39 49 72-2 45-101 50-169h31l1 190h-30c-1-10 1-25-2-33-11 22-28 36-60 37" id="aa"/><g id="l"><use transform="matrix(0.05,0,0,0.05,0,0)" xlink:href="#Y"/><use transform="matrix(0.05,0,0,0.05,12,0)" xlink:href="#Z"/><use transform="matrix(0.05,0,0,0.05,21,0)" xlink:href="#aa"/><use transform="matrix(0.05,0,0,0.05,31,0)" xlink:href="#M"/><use transform="matrix(0.05,0,0,0.05,36.95,0)" xlink:href="#L"/></g><path d="M30-248c118-7 216 8 213 122C240-48 200 0 122 0H30v-248zM63-27c89 8 146-16 146-99s-60-101-146-95v194" id="ab"/><path d="M190 0L58-211 59 0H30v-248h39L202-35l-2-213h31V0h-41" id="ac"/><path d="M185-189c-5-48-123-54-124 2 14 75 158 14 163 119 3 78-121 87-175 55-17-10-28-26-33-46l33-7c5 56 141 63 141-1 0-78-155-14-162-118-5-82 145-84 179-34 5 7 8 16 11 25" id="ad"/><g id="m"><use transform="matrix(0.05,0,0,0.05,0,0)" xlink:href="#ab"/><use transform="matrix(0.05,0,0,0.05,12.950000000000001,0)" xlink:href="#ac"/><use transform="matrix(0.05,0,0,0.05,25.900000000000002,0)" xlink:href="#ad"/></g><path d="M197 0v-115H63V0H30v-248h33v105h134v-105h34V0h-34" id="ae"/><path d="M127-220V0H93v-220H8v-28h204v28h-85" id="af"/><path d="M30-248c87 1 191-15 191 75 0 78-77 80-158 76V0H30v-248zm33 125c57 0 124 11 124-50 0-59-68-47-124-48v98" id="ag"/><path d="M16-82v-28h88v28H16" id="ah"/><path d="M101-251c68 0 85 55 85 127S166 4 100 4C33 4 14-52 14-124c0-73 17-127 87-127zm-1 229c47 0 54-49 54-102s-4-102-53-102c-51 0-55 48-55 102 0 53 5 102 54 102" id="ai"/><g id="n"><use transform="matrix(0.05,0,0,0.05,0,0)" xlink:href="#ae"/><use transform="matrix(0.05,0,0,0.05,12.950000000000001,0)" xlink:href="#af"/><use transform="matrix(0.05,0,0,0.05,23.900000000000002,0)" xlink:href="#af"/><use transform="matrix(0.05,0,0,0.05,34.85,0)" xlink:href="#ag"/><use transform="matrix(0.05,0,0,0.05,46.85,0)" xlink:href="#ah"/><use transform="matrix(0.05,0,0,0.05,52.800000000000004,0)" xlink:href="#ai"/><use transform="matrix(0.05,0,0,0.05,62.800000000000004,0)" xlink:href="#N"/></g><g id="o"><use transform="matrix(0.05,0,0,0.05,0,0)" xlink:href="#ab"/><use transform="matrix(0.05,0,0,0.05,12.950000000000001,0)" xlink:href="#ac"/><use transform="matrix(0.05,0,0,0.05,25.900000000000002,0)" xlink:href="#ad"/><use transform="matrix(0.05,0,0,0.05,37.900000000000006,0)" xlink:href="#ah"/><use transform="matrix(0.05,0,0,0.05,43.85000000000001,0)" xlink:href="#ai"/><use transform="matrix(0.05,0,0,0.05,53.85,0)" xlink:href="#N"/></g></defs></g></svg>